<?xml version="1.0" encoding="UTF-8" standalone="no"?>
<!-- Created with Inkscape (http://www.inkscape.org/) -->

<svg
   version="1.1"
   id="svg2"
   width="1333.3333"
   height="1333.3333"
   viewBox="0 0 1333.3333 1333.3333"
   sodipodi:docname="logo-chelbay-1.ai"
   xmlns:inkscape="http://www.inkscape.org/namespaces/inkscape"
   xmlns:sodipodi="http://sodipodi.sourceforge.net/DTD/sodipodi-0.dtd"
   xmlns="http://www.w3.org/2000/svg"
   xmlns:svg="http://www.w3.org/2000/svg">
  <defs
     id="defs6">
    <clipPath
       clipPathUnits="userSpaceOnUse"
       id="clipPath16">
      <path
         d="M 0,1000 H 1000 V 0 H 0 Z"
         id="path14" />
    </clipPath>
  </defs>
  <sodipodi:namedview
     id="namedview4"
     pagecolor="#ffffff"
     bordercolor="#000000"
     borderopacity="0.25"
     inkscape:showpageshadow="2"
     inkscape:pageopacity="0.0"
     inkscape:pagecheckerboard="0"
     inkscape:deskcolor="#d1d1d1" />
  <g
     id="g8"
     inkscape:groupmode="layer"
     inkscape:label="logo-chelbay-1"
     transform="matrix(1.3333333,0,0,-1.3333333,0,1333.3333)">
    <g
       id="g10">
      <g
         id="g12"
         clip-path="url(#clipPath16)">
        <g
           id="g18"
           transform="translate(673,503)">
          <path
             d="m 0,0 c -2.835,0.589 -6.706,1.384 -11.895,1.984 -3.182,0.369 -5.903,0.554 -7.967,0.653 v 167.897 h 82.805 c 17.733,0 34.078,-5.603 48.932,-16.782 10.41,-7.835 16.491,-16.46 19.492,-21.157 6.482,-10.147 8.953,-18.996 9.633,-21.595 0.814,-3.116 1.885,-7.316 2,-13 0.15,-7.41 -1.41,-12.956 -2.456,-16.561 -2.742,-9.458 -7.001,-15.721 -8.108,-17.431 C 124.674,52.032 112.543,45.093 95.941,43.165 84.377,43.165 75.279,45.684 68.7,50.695 58.316,58.791 53.074,67.863 53.074,77.912 H 86.072 C 86.089,77.213 86.229,76.047 87,75 c 1.646,-2.236 4.897,-2.058 6,-2 0.874,0.046 3.361,0.292 7,3 5.085,3.785 7.394,8.642 8,10 2.881,6.453 2.305,12.276 2,15 -0.576,5.157 -2.27,8.825 -3.385,11.188 -0.889,1.885 -4.205,8.933 -11.855,14.939 -8.841,6.939 -18.864,10.408 -30.07,10.408 H 12.571 V -3.146 C 7.718,-1.723 3.453,-0.717 0,0 M 95.941,-234.728 C 87.82,-249.017 73.531,-261.943 53.074,-273.534 38.837,-281.63 23.57,-285.69 7.328,-285.69 c -24.312,0 -44.358,7.916 -60.188,23.747 -15.061,15.059 -23.336,31.841 -24.878,50.371 -0.772,3.855 -1.182,7.71 -1.182,11.565 0,20.071 8.686,36.674 26.06,49.806 9.663,7.325 20.662,11.951 32.998,13.879 V -238.788 H 12.571 C 12.381,-177.192 12.19,-115.596 12,-54 c 2.126,-0.422 4.253,-0.844 6.379,-1.266 26.215,-6.938 49.395,-23.72 69.441,-50.371 15.472,-22.384 23.182,-46.877 23.182,-73.527 0,-20.457 -5.038,-38.987 -15.061,-55.564 m 19.122,148.211 c -21.64,30.867 -50.579,51.529 -86.867,61.937 -15.059,5.012 -32.998,7.53 -53.866,7.53 -19.686,0 -37.779,-1.928 -54.382,-5.782 -35.157,-9.663 -67.179,-27.602 -96.117,-53.841 V 86.275 h -31.251 v -186.418 c -5.592,-3.936 -11.384,-7.614 -17.413,-10.993 -12.747,-7.144 -26.163,-12.643 -40.246,-16.499 -14.084,-3.855 -28.064,-5.808 -41.942,-5.808 -3.136,0 -6.116,0.103 -8.995,0.308 -2.879,0.18 -5.706,0.489 -8.378,0.849 -53.302,6.193 -95.758,30.12 -127.369,71.805 -28.218,37.419 -42.302,82.779 -42.302,136.055 v 4.343 4.344 c 1.953,52.479 20.971,98.327 57.054,137.494 36.082,39.167 79.412,60.883 129.99,65.149 h 9.817 c 22.77,0 43.536,-4.266 62.246,-12.747 18.709,-8.507 31.918,-20.457 39.628,-35.903 2.725,-5.397 4.832,-10.716 6.374,-15.908 1.542,-5.217 2.313,-10.537 2.313,-15.934 0,-1.927 -0.154,-4.035 -0.565,-6.373 -1.902,-13.493 -7.145,-24.518 -15.625,-32.999 -5.809,-5.783 -13.519,-8.686 -23.182,-8.686 -1.543,0 -2.879,0.102 -4.009,0.308 -1.183,0.18 -2.313,0.463 -3.496,0.848 -7.709,2.339 -12.952,5.423 -15.625,9.278 -5.037,7.324 -7.556,13.903 -7.556,19.686 h -31.251 c -0.261,-5.013 -0.552,-22.455 11.617,-38.807 0,0 12.814,-17.22 35.335,-22.667 6.908,-1.671 13.289,-1.645 13.289,-1.645 3.539,0.014 6.559,0.377 8.07,0.591 2.723,0.386 5.345,0.874 7.812,1.439 2.518,0.591 4.934,1.26 7.247,2.031 2.313,0.771 4.524,1.747 6.683,2.903 2.107,1.157 4.112,2.313 6.065,3.47 1.953,1.156 3.751,2.39 5.5,3.752 1.747,1.362 3.392,2.801 4.934,4.343 14.648,12.362 22.923,29.735 24.878,52.12 0.411,2.313 0.564,4.42 0.564,6.373 v 6.348 c 0,16.602 -3.443,31.071 -10.382,43.433 -10.846,18.915 -23.541,32.999 -38.242,42.251 -25.854,18.144 -56.128,27.216 -90.874,27.216 h -13.313 c -27.807,0 -55.1,-7.145 -81.931,-21.408 -26.831,-14.289 -50.474,-32.999 -70.932,-56.155 -20.817,-22.795 -36.956,-49.42 -48.367,-79.9 -11.359,-30.506 -17.064,-61.757 -17.064,-93.805 0,-27.396 4.163,-54.047 12.438,-79.901 8.327,-25.854 20.971,-49.395 37.933,-70.623 38.241,-50.552 87.637,-78.745 148.237,-84.527 6.939,-0.771 13.878,-1.157 20.816,-1.157 26.626,0 52.223,4.729 76.741,14.187 8.172,3.152 15.976,6.808 23.478,10.88 v -98.004 h 31.251 v 114.056 c 25.442,35.106 60.807,58.288 105.935,69.466 15.06,3.856 31.868,5.809 50.372,5.809 v -54.433 c -20.046,-1.926 -38.19,-8.891 -54.433,-20.842 -13.877,-11.976 -23.541,-25.469 -28.937,-40.529 -5.398,-14.289 -8.122,-27.987 -8.122,-41.094 0,-3.11 0.206,-6.194 0.617,-9.278 3.855,-27.011 15.421,-50.166 34.695,-69.467 19.326,-17.757 42.508,-28.757 69.492,-32.998 1.542,-0.385 3.084,-0.591 4.626,-0.591 1.542,0 3.032,-0.077 4.369,-0.283 1.336,-0.206 2.776,-0.282 4.318,-0.282 18.915,0 39.578,5.576 61.937,16.781 13.518,6.94 26.007,16.705 37.367,29.247 11.411,12.541 20.56,27.396 27.499,44.564 6.939,17.167 10.434,34.823 10.434,52.993 v 2.596 2.903 2.596 c -1.953,30.866 -11.564,57.902 -28.937,81.057"
             style="fill:#c8984e;fill-opacity:1;fill-rule:nonzero;stroke:none"
             id="path20" />
        </g>
      </g>
    </g>
  </g>
</svg>
